<svg xmlns="http://www.w3.org/2000/svg" viewBox="0 0 173 951" width="173" height="951">
<title>L'Armoire à Cuillères — la cuillère</title>
<path class="c-fond" fill="#fff" d="M77.9 946l-6.7-1.5-5.1-2.1-7-4.5-4.8-4.2-10.5-13.5-8.6-15.9-7.1-17-10.8-33.9-7.3-31.8-3.4-24.2-.6-20.3 1.7-15 5-18.3 6.2-13.8 8.1-12.1 7.1-7.8 8-6.4 6.3-3.7 2.8-1.1 4.6.1 3-1.6 3.7-4.3 2.1-5.1.5-9.6-.8-6.6-1.5-3.7-4.9-5.8-.8-2 3.5-3.7-2.4-7.5-.1-4.9 10.9-56.3 3.2-83.8 2.8-34.4-1.1-32.8.7-31.4-1.7-19.4.1-17.6-3.4-42.6-3.7-16.4-1.8-15.6-1.8-5.7-2.8-4.4-6.8-5.8-.4-2.4 1.3-4.4-4.7-5-1.4-4-6.2-5.5-2.1-4.8-.1-3.5 1.9-4.9-2.2-4.4-.6-4.8.7-2.6 3.9-5.1 1.6-16.7.1-13.7-2.5-14-2.3-4.9-4.6-6.1-.6-2.2 1-1.9 4.9-.3 1.6-1.4-2-5.8-2.9-4.7-4.8-18-13-32.8-2.3-10.5-.5-8 1-11 3.7-13.7 3.8-4.3 7.2-5.8 15-6.7 4.7-7-1.1-3.6.4-1.4 4.3-1.5 2-2.1 2.3-9.4 5 0 2.9-1.7 4.5-4.8 3.8-6 3.9-.3 4.2 1.3 11.6-2.4 10 3.4 5 .3 4 5.8 4.8 2.8 1.5 3 5.8 7.1 5.3 12 1.6 2 10.1 2.3 6.1 3.6 5.1 1.7 4.5 3.5 5.7 10.1 2.6 12.3-.1 8.7-5.7 22.9-8.2 22.5.2 12.9-1 4.6-9.1 15 3.4 3.2.5 2.7-5.4 4.3-3.2 5.3-3 8.8-1.2 9.4-.1 7.2 1.2 6.2 5.9 9.9 3 10.9 3 4.6 0 7.1 6.1 6.5.8 5.8-1.3 3.6-4.5 5.2-5.7 2.8-6.6 5.3 0 5.1-4.3 3.8-4.7 5.7-2.8 4.6-2 5.3 0 3.2 2.2 5.3-.1 4.2-6 15.9-6.3 23.1-6.8 36-5.7 36.8-3 46.4-.2 44.8-.9 2.2-.3 4.1 4.5 63.1 9.2 52 1.5 11.8-.4 3.5-2.8 2.2 1.4 3.6-.2 4-1.6 3.3-3.5 4.2 2.2 23.8 5.1 11 23.9 15.4 7 6.8 7.5 9.9 5.1 10.2 2.2 7.5 1.6 9.5.7 13.6-3.6 27.1-7.4 30.4-14.4 47.6-6.2 17.6-6.4 15-9.1 16.1-9.8 11.3-5 3.8-5.5 2.8-7.4 1.8-6.6.1z"/>
<path class="c-trait" fill="#1a1919" d="M77.7 946.6l-6.3-1.2-5.2-2.1-4.4-2.6-6.6-5.3-6.4-6.8-3.9-5.3-5.4-8.7-5.3-10.3-7.1-17.1-10.5-32.8-4.8-19.4-2.8-13.4-1.9-10.7-1.8-15.9-.2-21.4 1.8-12.7 1.5-6.7 3.8-11.7 6.3-13.7 7.2-10.5 4.8-5.6 4.9-4.9 7.5-5.6 6.2-3.6 2.1-.8 4 .8 2.9-1.8 3.2-3.4 1.4-2.6.9-2.8.5-9.7-.2-3.7-.6-2.8-1.5-3.7-4.5-5.3-1.2-2.4.5-1.4 3-2.5-.3-2.5-2.1-5-.1-4.9 5.9-28.2 1.6-11.1 2.9-13 .5-3.9.8-12.6 2.5-74.2 2.7-31.2-.3-16.1-.8-16.6.7-31.7-1.7-19.3.1-17.8-1.5-14.8-1.9-27.1-3.7-16.9-1.8-15.5-1.6-5.5-2.5-4.1-7.1-6.1-.6-1.2 0-1.5 1.4-4.6-4.5-4.4-1.5-4.3-3.8-2.8-2.1-2.2-1.6-2.5-.9-2.7-.2-3.7 1.9-4.9-1.2-1.8-1.1-2.7-.5-3 0-2.1 1-2.9 3.1-3.3.4-1 1.7-16.7.1-13.7-.9-7.7-1.6-6.4-2.3-4.9-4.4-5.7-.7-2.4.4-1.8 1-1.1 5.2-.5.6-.6-1.9-6-2.8-3.9-1.8-8.8-3-9.5-13-33-2.1-8.5-.7-9 .5-7.6.7-5.1 2.1-9 1.8-4.7 5.2-5.2 6.4-4.9 5.5-3.1 4-1.5 3.6-.9 1-.7 4.6-6.7-.9-3.2.5-2.3 2-1.4 2.8-.3 1.1-1.4 1.1-3 1.5-6.9 1.9-.6 4 .4 2-1.2 4.4-4.7 1.7-2.7 1.1-2.9 1.7-1.1 2.6-.4 1.8.1 3.4 1.3 11.9-2.3 7.9 2.8 6.7.9 4.1 5.5 2.1 1.8 3 1.6 1.6 3 6.7 8.8 5.4 11.9 2.1.8 4.7.4 2.1.6 7.8 4.2 4.4 1.3 3.1 2.2 4.2 4.8 3 5.5 2.2 6.3 1.1 5.7.2 9-.6 4.6-5.4 21.3-6.4 16.1-1.4 4.7-.5 4.5.3 8.9-.8 4.7-3.2 6.4-6 8.4.5 1.2 3 2 .6 1.4-.1 1.4-1.6 2.3-4.5 3.5-2.6 4.1-2.7 7.9-1.2 6.9-.1 10.2 1 6.7 1.5 3.1 4.3 6.5 3.1 11 2.9 4.7.1 5.7.4 1.7 1.1 1.4 2.9 2.2 1.6 2.2.9 2.7.1 2.8-1.3 4.2-4.6 5.5-3.5 2.4-3.1 1.1-3.4 2.9-2.2 1.3-.3 5.3-5.5 5.4-2.7 3.3-3.2 5-2 4.7-.3 3.9 2.3 5.3.3 1.8-.2 1.7-.9 3.9-6.3 16.2-5.8 22.4-6.6 35.9-5.4 34.7-.8 19.4-2.1 25.3-.4 46.7-.9 1.8-.2 3.9 4.6 64.3 2.1 12.7 6.3 34.2 2.3 16.1-.2 2.1-.5 1.5-1 1-1.6.8 1.6 3.3-.4 4.1-1.6 3.4-3.3 4.2.3 9 1.8 14.8 3.9 9.7.8 1.2 17.5 10.4 6.8 5.1 5.3 5.2 8.9 11.3 4.6 9.1 3.2 10.1 1.6 9.9.3 12-.5 8.4-2.8 17.9-3.3 14.8-4.3 16.3-9 30.2-.7 3.5-5.4 16-6.6 18.5-6.7 15.1-6.2 11.1-3.1 4.6-3.8 4.4-6.5 6-6.8 4.5-4.3 1.8-5.9 1.1-5.7 0zm9.3-3.1l6.8-2.7 4.2-2.7 4.1-3.6 4.1-4.3 4-5.3 4.7-7.6 4.4-8.5 4.6-10.3 3.9-10.4 9.9-29.3 6.4-26 6.4-23.5 2.2-10.3 1.9-13.1 1.5-12.4.3-7.6-.6-8.9-2-8.7-2.5-6.4-2.8-6.1-6.3-10.4-5.3-6.1-8.2-6.7-13.6-8.3-3.5-.9-5.1-2.6-3.4-3.6-4.5-6.2-2.7-7.5-1.5-7.7-.2-7.6 1.4-11.6-3-1.3-2.4-.3-10.6 1.1-5.3 4.4-.1 1.5 1.6 8.5-.2 9.5-2.2 7.8-2.4 4.9-1.6 2.2-2.9 2.4-3.2.6-6.6 2.8-2.8.3-2.4-1-7 3.9-5.6 4-5.4 4.9-5.8 6.5-4.2 6-3.8 6.3-3.4 7-2.5 6.3-2.7 8.4-2.3 10.8-.8 5.5-.8 11.5.4 12.3 1.4 13.5 2.5 15 3.7 17.2 4.3 16.8 9.4 28.7 3.4 9.4 4.6 10.1 7.7 14.1 5.4 7.7 5.4 6.3 5.7 5 5.8 3.7 5.5 2.3 7.4 1 7.2-.7zm-11.5-109.5l-1.3-1.9-.6-4-9.9-35.3-5.6-16.1-2.8-10.5-2.6-12.7-.5-6.3.3-1.9 1.1.3.4 1 5.7 26.6 6.1 19 7.9 28.5 3.1 9.5.4 1.8-.2 1.8-.6.5-.9-.3zm-6.9-.6l-1.6-4-3.3-15.3-7.4-20.2-.6-2.6-4.2-11.4-2.3-7.7-2.1-11.6-.2-4 .6-1.8 1.1.4 1.5 2 .1 8.1.8 4.9 3.7 10 3.6 12.4 9.1 24.9 1.3 6.7 2.1 8.2-.6 1.6-.9 0-.7-.6zm10.6-2.4l-.9-1.9-9.6-43.4-5-19.8-4.1-14.3-1.4-9.1-.3-5.6.4-1.1 1.2.4 1.2 2.5 1.4 9.9 2.5 11.9 6.5 25.2 9 40.7.8 1.8 0 2.7-.8.4-.9-.3zm22.4-.7l-.2-2.6 1.8-32.9.4-14.7-.8-23.8-1.7-17 .1-4.2.6-1.5 1.2.6.6 2.9 2.1 27.5.2 18.4-.3 15.5-1.7 30.3-.2 1.2-.6.7-.8.2-.7-.6zm16.1-.3l-.5-1.1 0-1.4 4.2-18.9 3.8-16.4.5-.8.8-.3.5.5.1 1.7-1 8-6.3 28.5-.9 1-1.2-.8zm-29.2.4l-.8-3.5-2.3-15.5-5.7-46.8-4.7-29.4 0-3.2.4-1.5.7-.6.8.5 1 2.3.3 7.9 4.1 26.9 5.2 41.9 2.1 14.4 1.1 5.2-.7 1.8-.9.1-.6-.5zm17.8.5l.4-16.1 3.5-47.9.4-12.8-.1-12.5.5-1.6.7.2.6 1.7.7 9.6-.1 14.3-1 20.3-3.4 40-1.1 4.4-.5.6-.6-.2zm5.6-.6l-2.3-.3-.4-1.7 5.7-45.4 2.6-27.9.7-2.3.7.4.2.6.3 3.1-.8 18.5-6.3 49.1.3-.1.2-1.6 1-2.3 4-16.7 5.3-26.1.5-.7 1.1 1 .5 1.6 0 1.8-4.6 24.5-1.6 6.4-2.3 5.9-1.5 9.4-1.3 2.6-.9.4-1.1-.2zm-16.3-2.7l-.4-1.9.3-29.2-.5-25.9-1-17.9-1.6-16.2.6-3.6.6-.5.9.8.3 2.3 2 26.8 1.3 25.1-.2 38.9-.2 1.2-.9 1.1-.6-.1-.6-.9zm-3.4 2l-3-46.7-1.6-16.3-2.8-20.8-.8-16.5 1.3.1.6.7.9 3.5.7 16 2.5 16.5 1.7 17.4 2.5 41.6-.3 3.9-.8.7-.9-.1zm-8.3-2.4l-1-1.6-.8-2.7-2.6-13.8-2.7-18.9-5.9-31.4-5.1-21.3-.3-5.2.2-1.4.5-.5 1.4.9.9 2.5.8 8.4 4.4 20 12 63.5.1 1.6-.3.7-1.6-.8zm-17.4-133.5l2-2.3 1.7-2.9 2-6.3.7-5.6 0-10.1-.3-2.1-.8-2.5-2.2-2.9-2.7-2.4-1.3-.5-2.1-.2-2.5.9-.9.9-.6 1.2.5.8 1.8.2.9.9 3.2 12.6 1 7.6.1 4.2-.5 3.5-2.2 5.8.2.4.6-.1 1.4-1.1zm39.3.9l-1.2-3.4-2-9.6-.8-7.9.5-10.7 2.3-10.1-.2-.7-2.2 1.1-1.4 1.3-3.8 6.6-.2 9.6.6 7.9 1.8 7.6 3.2 5.9 2.4 2.3 1 .1zm-29.2-39.2l1.7-1.4.6-2.8-1.5-2.8-2.3-1.2-.8.4-.7 1.6.3 5.3.7 1.5 2-.6zm-6.2-1.5l.3-.8-.5-2.8.3-2.4 1.1-1.9 1.7-1.4 3.1-.4 2.6 1.4 1 .1 3.7-3.1 3.1-.7 2.3.7 2.4 2 2-2.1 3.4-.6.3-.5-1.6-8.3-1.7-18.2-2.6-17.7-.3-14.2.3-22.9 1-39.9 1.9-42.9 4.2-60.4 3.5-29.4 0-17.5-.6-5.1-.7-2.7-.4-.5-.7 1.1-.9 5.1-.7 1.8-1.2 1.2-4.7 2.9-.8 2.5-.8 11.4-1.1 25.7-.9 58.5.3 33.3-.3 5.5-1.1 8.1.7 10-.1 9.7-.8 21.2-.2.9-1.6.8-.2 2.3.7 33.9-.4 24 .4 4-.4 1.9-1.2.4-.8-2-.5-4.1.3-18.8.7-6.9-.7-7.9-.6-26.8-1.6-18.7-.4-11.1 1.7-37.1 1.1-8.5 2.1-8.9-1-13.8 1.5-8.8.4-9.5-.5-62.9-.4-9.1-1.9-4.9-1.3-8-.9-2.4-4.2 25.6-1.1 35.3.1 16 .6 14.4 0 20-1.6 38.3 1.5 21.9.1 22.1.9 22.6-.2 17.2-1 17.6-1.8 18-3.5 15.9-1.3 2.9-2.6 4-.6 2 .4 1.6 1.2 1.2 1.1.3 1-.7zm25.4-.1c1.9-2.2 1.3-8-.8-8.2-1.5-.2-3.4 5.6-2.5 7.4.6 1.1 2.6 1.6 3.3.8zm-7.9-1.2c.5-.4.6-4.4.2-6.5l-.3-1-1.4 0c-4 0-5.9 4.7-2.9 7.2.9.8 3.5 1 4.4.3zm-23.9-2.3l2.5-4.3 1.7-5.7 4.6-20.9 1.6-11.2.5-36.3-1-28-1.1.3-.3 1.5-1.4 37.1-.8 9-3.1 13.8-2.3 16.4-2.9 9-.2 5.5-1.8 8.6.1 3.2 1.1 2.4 1.3.8 1.5-1.2zm37.5-.8c1-1.8-3.3-3.9-1.9-.4.5 1 1.4 1.3 1.9.4zm4.7-4.1l1-.7.5-1.3.1-4.9-7.7-43.1-2.5-16-1.7-36.2-.6-4.8-.7 4.1-.4 8.5-.2 26.1.3 13.7 1.9 29.3 1.8 11.5 3 10.8 1.1 1.8 1.4 1.3 1.2.3 1.5-.4zm-30.1-274.6l2.3-12.8 1.2-12.5.5-11.8-.6-8.1-2.2-10.4-2.2-5.2-2.8-3.5-1.6-1-1.9-.5-.6.5-.1 1.5 2.1 11.8 4.3 30.5-1.3 1.6.6 3.4.6 12.7.9 4.6.8-.8zm16.9-2.4l.4-21.6 1.4-7.3.3-4 .5-31.1.7-4.9 2.2-8.8.8-7.2-.2-4.7-.6-4.4-1.2-4.1-1.8-3.7-1.7 4.2-1.8 2.3-1.3.5-1.9-1.6-.5.3-1.3 10.3.9 5.9 1.3 2.7 1.8 2.1-1 9.5 1.9 16.1-.5 8.2-2.1 9.2.7 5.8-.3 13.5-.6 7.8-.8 4.5.4.7 3.2.3 1.1-.5zm12.8-3.7l6.6-28.5 2.9-9.4 4.5-12.4 1.8-6.7.4-4.5-3.4-1.5-1.2.2-1.2 1.1-4.9 7.4-2.9 7.2-3.1 11.2-1.2 9.4-.3 12 .6 11.2.8 3.9.4.3.2-.9zm-18.8-7.9l.8-10.8-.2-5-.6-3.3-1.4-4.4-1.3-1.3-.7 1.1-.9 8.8 0 4.2 2.1 9.5.8 6.7.8 1 .3-.5.3-6zm10.3 2.8l1.6-5.8 1.4-8.6.7-8-.1-2.3-.5-.6-.9.3-.5.6-2.7 12.4-.3 12.3.4 1 .9-1.3zm3.3-28.5l1-.5.5-.8 1.4-7.2 3.5-11.9-3.3-5.3-3.2-6.4-1.1 2.2-.7 5.4-.5 25.2 2.4-.7zm-12.3-5.7l.4-5.1-.1-6.6-.7-4.5-.8-.8-.7.3-1.3 2.7-4 5.2-.3 1 2.4 6 3.4 5 .8.7.3-.2.6-3.7zm-6.9-13.2l3.3-5.9 2.4-7.3.6-3.9-.1-2-.6-1.4-1-.7-1.5-.1-2 .7-3.3 2.5-1.2 1.5-1.8 5.8-.6 4.1 1.9 2.4 2.3 4.4.6.5 1-.6zm28.5-6.1l2.2-3.8-1.2-3.8-4-5.2-2.6-2-1.2-.2-.6 1 .1 2.9 2 6.3 3.2 4.4 1.4 1 .7-.6zm-37.6-5.4l3.9-7.7 0-1.4-.8-2-6.7-7.7-5.6-5.2-2.5-1.9-2.3-1.2-1.3-.2-1.4.3-.7 1.3.3 2.2 6.3 5.7 2.4 3.9 1.9 5.3 1.3 7 4.1 2.7.6-.1.5-1zm45.1-2.3l1.6-1.1 3.3-7.4 4-7.3 6.4-8.7.3-1-.5-.7-2-.6-2-.1-5.8 1.2-1.9 1.9-5.1 7.9-2.9 6.7-.7 3.6-.2 3.9 2.7 2.4 2.8-.7zm-7.5-8.4l1.5-5.2 2.6-6.9-2.4-8.2-1.2-2.1-.6.3-.5 1.1-2 6-.9 6.4.2 4.2.6 2.3 1.5 2.1.7.3.5-.3zm-30.6-1.8l.9-1.5.5-2.3-.1-4.7-2.7-15.9-.3-.9-.6-.2-.5.5-.7 2-.7 3.8-.3 4.3.2 6.5.7 3.7 1 2.8 1.4 2.3.6.1.6-.5zm24.2-3.6l.6-3-.6-1.8-.5 1.3-.5 4.3.2.5.8-1.3zm-31.7-3.2l.1-10.1.6-5.1 1-4.5-.3-.6-2.4 2.4-1.9 1-3 .5-3.4-.6-3.1 5.2 5.3 4.3 3.2 3.4 2 2.9 1.5 1.5.4-.3zm12.9-7.8l-.8-8.4-1.4-6.6-3.2-8-.6-2.9-2.6-3.1-.8-.4-2.3 3.8 2 4.3.3 4.1 2.1-.6 1.5 1.4 1.5 4.3 3.2 14.2.5 1.2.4 0 .2-3.3zm33.7-1.4l2.8-2.3 2.1-1.1 5.4-.9.1-1.6-1.2-3.5-5.5 2.3-2.9-.2-2.2-1.2-1.8-1.9-.7-1.6-.5-2.8.3-3.7-.6-.3-1.2 1.1-.5 2.2-.2 3.9.4 2.6 3.9 10.4.7 0 1.6-1.4zm-16.3-1.1l2.7-6.2 3.6-6.4.4-2.8-.6-1.6-1.8.3-2.3 1.9-5.3 7.3.3 2.7 1.3 5.2.6.4 1.1-.8zm-45.2-3c2.3-1.5 3.5-7.2 2.3-10.6-.9-2.6-1.9-3.5-4.2-3.5-4 0-6.1 3.1-5.2 7.7.8 4.4 4.8 8 7.1 6.4zm34.2.3l.4-1.1.2-2.5-1.3-6.3-3.2-4.8-2-1.6-1-.2-.4.7.4 2.1 2.3 7.3 3.2 5.8.9.9.5-.3zm47.3-1.6l.6-2 .2-3.4-.2-3.4-.6-2-.6-.6-2.4.9-4.1.8-.5 2.1.1 2.3.8 3 1 1.8.6.6 1.3.3 2.2.1 1.6-.5zm6.8-4.6l2.4-1.6 2.8-2.8 1-1.4.7-2.7-.2-2.6-.9-2.1-1.5-1.6-1.9-.7-2.2.3-2 1.6-2.1 4.8 1.1 8.4.9.9 1.9-.5zm-21.5 0l1.9-1.7 1.6-2.8 1.1-3.3-.1-2.4-3 1.6-6 1.4-1.6 1.4-.3 1.1.2 1.5 1.3 2.2 2.7 1.3 2.2-.3zm-55-.9l1.3-1.2 1.4-2.4.6-2.2.1-3.3-4.8-3-2.6-.9-1.7-.1-.3 1.2-1.8 2.9 0 2 .4 1.4 1.4 2.4 2.6 3 1.7.7 1.7-.5zm29.3-2.7l2.2-3.9 2.8-2.7 1.4-2.2 3.5-11.1-.3-.9-2.7.1-1.8.9-1.6 1.6-1.3 2.4-1.7 5.4-1.9 9.6.3 1.4 1.1-.6zm-50.6-2.3l1.2-5.1-.3-4.8-1-1.4-2.8.1-2 1.1-1.1 1.9-.3 2.3.4 2.4 1.1 2.3 1.7 1.7 2.2.8.9-1.3zm46.3-.7l.1-2.8-.7-3.1-1.4-3.1-1.9-2.8-3.5-3.3-9.7-5.3-.6-.1-.3 2.1.5 2.4 6.1 7.5 3.7 1 1.6 1 1.2 1.2 3.3 5.4 1.1.7.5-.8zm42.3-2.8l3.4-2.5.7-1.4-.3-1.5-1.2-2.3-1-1-1.4-.4-2 .6-1.6 1.4-1 2-.4 2.2.5 2.1 1.6 1.7 1 .3 1.7-1.2zm-15.6-1.5l4.2-1.2 3.3 1 .8-4.6-2.9-1.5-7.7-6.8-1-.4-1.4.1-1.4.9-.9 1.7-.5 3.2.3 2.3 1.1 2.8 2.4 2.3 1.6.6 2.1-.4zm-63.7-.3l2.7-1.5-.7-3.1-2.8-3.1-2.5-1.3-1.3 0-1.6 3 .1 1.3 3.7 4.9 1 .3 1.4-.5zm54.7-1.2l-.9-2.4-1.1-1.5-1.2 1.8-.3 2.2 1.9.5 1.6-.6zm-40-4.8l.9-3.1-.4-2.4-.9-2.4-1.6-2.3-2.1-2.1-2.4-1.4-1.3 0-4.4 8.8-.2 1.4 2.3 3.4 3.3.1 4 1.3 1.8-.4 1-.9zm73.1-2.2l.7-4.2-.8-4.4-1.2-1.9-1.4-1.4-2.3-1.2-1.3 0-.5.5-.4 2-.1 7.9 5.6 3.9.8 0 .9-1.2zm-13.2-.6l2-1.6.5-1.5 0-4.8-.8-3.4-.8-1.4-1.4-.6-2.7-.1-2.5.5-1.1 1-.8 1.9 0 2.5 1 3.8 1.4 2.2 1.7 1.4 2.3.9 1.2-.8zm-85.7-1l4.2-1.3.4-.9-.3-1.6-1.7-3-2.1-2.2-2.3-.9-2 .4-1.4 1.4-.4 1 .2 2.6.6 1.5 2.5 3.1 2.3-.1zm53-1.4l2.3-3.2 1.5-1.3 2.2-1.1 2.9-.2.5-.9-.9-5.3-1.7-3.3-1.4-1.7-1.8-1.3-3.4-1.2-.5.6 1 3.8-.1 4.8-2.4 11.4.4.4 1.4-1.5zm-7.4.1l-3-7-1.1-3.9 0-3.2 1.5-5.2-.8-.4-2.2.1-1.7 1-1.6 2.5-.6 3.3.3 2.9 1.8 3.7 1.8 2.3 3.8 3.4 1.8.5zm-35.7-1.8l3.3-4.5 2.1-6.2-.1-1.3-.8-.8-2.5-.9-2.9.3-1.8.7-1.6 1.3-1.2 2.3 0 1.6 1.2 2.7 3.2 4.8 1.1 0zm38.9-2.5l1.4-5.7.2-4.3-1-.7-2.9-.8-1.2.6-.6 1.6.3 4.8.8 2.4 1.3 1.9 1 .7.7-.5zm18.3-.1l3.5-1 3.4.5 1-4.8 1.6-2.3 1.6-1 2-.7 5.5-.2-1.1-4.6-2.5-7.1-3.8-7.9-2.3-4.2-.9-.8-.6.3-1.5 4.6-3.4 6.1-3.4 4-4.6 4 2 4.6 1.3 4.2.9 6.3.3.4 1-.4zm-39.6-3l1.5-.5 3.8.9 1.3-.2-.4-1.6-.2-3.3.7-5.5-.4-.7-2.3-2-8.1-9.6-2.2-3.5-1.3-3.4-.6-3.9.1-4.8 1.6-3.5.3-5.7.5-2.5 2.1-4.6 2.8-3.2 3.2-2.8 2.9-1.7 5.8-2.6 4.6.2 6.6 2.1 9.5-1.8 6.6-.2 3.4 1 2.9 3 .9.5.8-9.5.9-4 1-2.3 2-2.7 1.8-1.6.7-.1 2.7 1.3.5-1.2.2-6.7-.6-7-1.6-7.2-2.9-9.3 0-2 2-1.7 2-.9 1.9 0 2 .6 3 2.4 2.7 3.7 2.5 4.3.4-.2 1.4-19.5-.1-9.5-.9-4.2-6.2-11.6-3.2-4-1.9-1.6-2.7-1.7-2.8-1.1-2.6-.5-1.2-1.8-1.1-.5-3 .6-2.7 1.5-6.5 6.6-10.7.6-8.4 1.1-3.8.2-2.2-1.1-6.8-7.8-2.8-2.1-6.5-2.6-3.8-1-3.5-.4-3.2.3-3.9 1.6-1.9 1.8-3.3 6.5-2.3 6.1-2.3 11.4-.4 10.5 1.3 8.5 2.5 10 1.9 5.2.4.3.6-.2 2.9-4.6 2.8-3.2 4.2-2.7 2.6-.3 1.2.3 2.3 1.6.9 1.7-2.8 7.8-1.9 7.2-.7 5.7-.1 6.1.8 6.8.9 3.2 4.6 10.4 1.1 4.5-.1 2.5-.9 4.6-3 10.4-.4 5.5-.6 3-6.1 13.7-1.5 6.2.8.8 6 .6 2.2 2.4 1.2 3.3 2.7 1.4 4.9 3.8.5.1.5-.4zm-26.2-5.2l4.2-4.9 1.8-8.3 5.2-13.1.2-1.7-.5-.6-1.1.2-1.4 1.2-3.5 4-3.1 4.4-1.6 3.4-1.7 6.9-.7 6.9.5 2.5.7.1 1-1zm89.2-1.1l4.6-.6-1.2-4.6-2-3.5-2.1-2.2-4.3-7.8-3.1-3.6-2.1-1.2 5.3 11.3 1.9 5.9 1.4 6.5.4.3 1.2-.5zm-42.1-8l2.3-1.3 4.5-1.2 3.8-5.6 1.4-2.9.7-3.8-.7-3-1.8-1.9-.6-.1-.4.3-1 4-3.3 5-1.1 1.1-2.7 1.3-4.6.3-3.3-1-3.2-2-3.2-2.9-.7-.2.3 2.9.7 3 1.2 2.5 1.6 2.1 3.1 2.4 3.2 1.4 2 .4 1.8-.8zm-12.4.5l-2.4-5-.9-3.1-1.2-10.1-.5-.2-2.7 2.4-1.3.4-1.9-1.5-.7-2.3.3-2.7 2.7-2.2 2.2-3.3 1.4-4.5-.2-.8-.4-.1-3.5 2-1.4 1.4-2 3.5-.6 2-.6 4.3.5 4.4 1.5 4.1 3.6 4.8 5.2 5.4 2.1 1.3.8-.2zm24.6-1.3l8-8.5.7-1.7.4-2.6-.4-4.7-1.4-3-2.6-2.8-1.9-1-1.6-.3-1 .1-.4.6 3 6 .7 4.5-.7 3.7-1 2.5-4.6 7.5.2.5.7.1 1.9-.9zm-11-10.1l2.5-1.6 2.2-3.8 1.1-11.6-1.1-1.3-3.3-1.5-2.1-.5-3.1.2-4.1 2-2.8 3.4-1.6 4 0 4.9 1.4 3 2.6 2.1 4.5 1.1 3.8-.4zm36.6-4.5l1.2-14.7 1.5-7.2 2.6-5.3 6.1-7.7.1-.8-1.2.2-2.7 1.8-8.6 9.7-3.6 10.6-.8 3.7.3 4 2.6 3.7 2.5 2zm-81.8-1.8l1.5-1.5-4.8-23.4-2-2-5.4-2.7-1.7-.3.1.7 4.3 5.4 1.9 4.4 4.3 20.6.2.2 1.6-1.4zm43 .7l-3-.8-1-.6-.8-.9-.7-2.3.2-2.4 1.2-2.2 2-1.3 1.3-.2 1.6.4 2 1.8 1 1.6 1 3.2-.1 1-.7.7-2.7.6-.1 1.6-1.2-.2zm24.9-3.7l.7-2.4.1-3.4-.5-3.5-1.1-3-1.2-1.6-2.3-1.9-2.4-.9-2.1.2-.9.8-.2.9 1.1 5.3 4 3.4 3.7 5.6.6.6.5-.1zm5.1-1.9l-.1-1.9-.5-.6-.7 1.2.1 2.4.3.7.5.1.4-1.9zm-44.5-.3l1.3-.9.9-3.2 2.1-3.1 2.5-1.9 3.4-1.3 6.2-1 3.5 0 1.7.8 3.3 3.5 1.3.2.4-.6.2-1.3-.7-6.5-7.1-4.1-1.2-.4-.8.2-2.1 1.9-7.9 4.7-4.4 4-2.4 3.6-1.9 4.4.2 1.3 1.5-.3zm-21.3-1.3l3.5-5.1 1.5-4.5.8-6.6.1-5-.6-3.8-1.7-4-1.2-1.7-.7-.3-.7.8-2.6 10.6-1.5 11.7-.1 5.6.4 3.4.9.3 1.9-1.4zm68.1-9.1l1.9-5.9 3.3-6.5.4-5-.5-5.2-1.1-2.9-1.7-2.2-1.5-1-.8-.1-.7.6-1.3 2.9-.7 4.6-.3 5.9.3 6.3.9 6.3.8 2.9 1-.7zm-52.2-1.3l3.3-2 3.6-.2-.3-2.7-1.2-1.8-1-.4-1.7.2-3.2 2.6-1.6 2.4-.8 2.4.9.3 2-.8zm45.1-4.2l-2-4.7-2.1-2.3-1.8-1.1-2.8-.7-1.6.2-1 .9 1.6 2.1 4.6 3.8 4.2 2.6.7 0 .2-.8zm-66.2-.9l-.1-1.3-1.6-2.3-.4-1.4.5-.8 2.1-.7.5-1.1-1.3-2.4-1.5-4.5-4-19.8-2.2-4.3-2-1.6-2-.8-.5 3.2.3 7.6 2.1 11.7 2 5.5 3.6 6 .7 3 1.3 2.9 1.9 2.4.4-.1.2-1.2zm33.3-.1l6.4-4 .3-1-1.3-1.8-2.3-1.3-3.9-.3-3 .8-2.9 1.9 2.7 2.7 2.4 3.4.6.2 1-.6zm21.8-1.7l-1.7-2.3-3-2.2-2.6-.5-1.3.2-.6.7.4.8 1.9.5 4.7 3.1 1.7.3.5-.6zm29.7-10.4l-.4-1-1 1.9 1 0 .4-.9zm-81.8-2.2l2.8-7.5-.8-7 .1-8.2.9-8.5 1.1-5 1.6-5.1-.3-1-4.5 2.4-2.9 3-3 5.4-1.5 5.1.3 6.2 2.6 10.3 1.6 9.6 1.3 1.4.7-1.1zm83.2-.9l2.7-3.2 4.5-6.6 3.4-6.2 1.9-5.3.4-3.4-.4-1.6-.6.3-1 1.6-10.7 20-2.3 5.9 2.1-1.5zm-4.1-3.2l4.2-6.7 1.1-2.7.6-3.7-.1-6.4-1.2-6.4-2.3-5.9-3-5-2.4-2.6-1-.4-1.8.6-.6.8 2.9 10.6 1.3 6.4.9 7.6-.3 11.4.7 2.5.5.4.5-.5zm9.8-18.4l2.7-5.5 1.3-3.7 2.1-1.5.8-1 1.7-7.6 4.3-10.2 2.6-11.8 3-7.7 1.7-6.5.9-9-.4-5.6-1.3-5.5-2.3-5.2-4.8-6.6-4.2-3.6-4.9-3.1-8.7-3.5-12.9-1.2-1 .7-1.1 2.6-.1 1.8.6 1.8 1.6 1.8 2.7 2.2 11.9 7.9 6 5.5 4.1 6.3 1.9 4.8 1.3 5.5.5 7.2-.2 9.6-1.5 12-.6 1.2-.9-.1-.5-1.2.6-10-.6-9-2.2-11.6-2.5-6.8-2-3.7-2.3-3.1-4.1-3.4-3.1-1.6-5.6-1.5-1.9 0-.8 1.1-.2 6 .4 2.2 7 5.7 4.4 4.8 3.5 5.6 3.1 8.3 1.6 10.1.2 7.2-.5 7.5-2 14.9-.2 6.3.4.7.5-.5zm-108-4l.4-1.3 0-4.2-1.4-12.3-5-20.6-.8-5.3-.2-10.2 1.1-6.5 2.6-5.5 3.7-2.6 4.7-6.1 2.5-2.5 4.1-2.2 10.5-3 1.4-1 3.1-4.3.1-.9-.6-.8-2.7-1.2-4.2-.6-5.3.1-5.6.8-6.2 2-10.2 7.9-3.9 3.7-2.2 3.2-1.4 3.9-1.3 8.4-.4 9.9.5 6.6 1.8 10.4 1.2 4.2 2.6 5 7.1 17.2 1.6 5.8 1.2 1.8 1.2.2zm10.2-3l-.4-2-3.4-7.4-.8-3.2-2.5-17.6-.2-4.7.4-7.2 1.7-8.8 1.5-4.9 1.2-2.3 5.5-7.8 2.4-2.4 2.3-1.5 5.9-1.5 1.8-3 2.3-2 4.9-1.7 1.3-6-.2-1.4-1.3-1.5-14.8-8.3-1.9 1.7-.8 1.4 5.2.6 5.2 1.7 1.9 1.3 1.5 1.7.3 1.3-.2 1.6-2.2 5-1.6 1.7-13.5 4.4-3.3 1.9-2.1 2.4-3.6 6.2-2.1 5.8-2 8.5-.9 7.9-.1 7.2.4 4 3.2 12.6 2.8 8.6 2.3 5.3 3.2 4.1.6-.1.1-1.6zm103.6-17.9l.3-1.5.7-.2.6 1-.4 1.4-.9.5-.3-1.2zm-60-36.8l15.9-1.9 4.2-4.4 3.9-2.9 2.5-1.1 6.1-1.6.3-1.4-.8-3.3-.6-.7-1.6-.8-3.3-.8-1.1.3-2.4 1.9-1.7-.8-1.3.1-2.4 1.8-5.4 6.7-1.5 1-2.4-2.1-6.5-7.5-3.9-2.8-.7 0-1.9 1.7-4.2 6.9-1.4 1.2-1.4.3-2.1-1-3.4-4.6-1.7-.8-2.5-2.6-.9-.2-1.7.6-1.8 1.7-.2 1.1.5.7 12.8 7.2 3.3 2.9 4.1 4.8 2.7.7 2.5-.3zm11.6-13.7l.6-2.8-.9-4.3-1.9-3.3-2.8-2.9-1.1-.4-2 1-2.8.2-8-2.3-.7 1.7-.7 3.4.3 4 1-.3 2.3-2.9 1.9-1.5 1.8-.4 1 .3 3.3 2.5 6.9 8.8.9.5.9-1.3zm-23.3-2.5l-.3-5.6 1.3-7.1 1.8-3.6 1.2-1.4 3-1.9 3.5-.7 2.7.3 2.4.8 2.1 1.6 3.1 3.8 6.5 11.6 5.4-3.2.3-1.8-.5-2.9-1.5-3.5-1-1.4-4.8-1.6-1.6-2.3.1-2.1-3.8 1.5-1.5-1.1-1.5-2.5-.7.2-.4 1.4-.9.1-8.6-1.8-6.8 4.5-2.8 3.7-1.7 4.3-.3 4.4 1.2 4.1 1.1 1.7 2.5 2 .5 0 0-1.5zm43.5-5.7l2.8-2.8-2.7-2.9-1.3-2.9-.4-4.1 1.1-2.6-.8-1.6 0-1.4.4-.4 7 .6.8-.6-1.7-5-1.9-3.9-2.1-2.9-1.9-1.4-.5.6-.9 5.5-1.3 3.1-7 11.8 2.2 5.6.7 4.2 1.2.6 4.3.9 1.3 0 .7-.4zm-48.2-13.7l.3-1.2-.9-1-10.2-6.6-4.7-1.8-2.5-.1-1.2.7.4 1.1 2.1 2 4.7 3.2 10.6 5.1.8-.1.6-1.3zm33.1.6l2.2-1.2 2.1-1.7 2.7-3.5 1.4-2.6 2.2-8.2.4-5.5-.4-1.5-1.9.5-2.4 2.4-4.8 8.4-2.3 6.3-1.5 6.1.3 1 2-.5zm-27.5-4.5l-.6-2-2-3.4-7.1-9-2-2.1-2-.6-2.3-2.4-1.2-.3.1 1.2 1.7 3.2 5.2 7.7 2.3 2.3 3.5 1.8 3 3.7.9.3.5-.4zm3.9-2.1l-2.9-8.4-6.1-13.6-.6-.3-1.1.4-2.3 1.5-1.2 1.2-.5 1.2.2 1.2 1.1 1.7 6 5.8 6.2 8.6.8.9.4-.2zm8.5-.4l2.4-5.2 1.5-6.3.5-11.9-.3-3.8-.7-1.8-1 1.2-1.3 4.3-3.4 17.8.4 5 1 1.2.9-.5zm-26.2-4.6l-.7-1.4-3.4-3.9-1-.1-1.4 1.4-.2.9.5.7 5.4 2.5.8-.1zm38.7-.8l.4-2 3.7-8.9 1.2-4.4-.1-3-.6-1.5-.9-.7-1.5.4-1 1.5-2 16.8 0 1.9.5.3.3-.4zm-19.8-9l-.7-8.9-1.2-3.9-1.8-2-1.6-.3-1.7.2-.5 1.2.2 3.2.6 3 1.4 4 4.7 9.7.5.1.1-.5 0-5.8zm3.9-3l2.5-10.4.2-1.1-.4-.3-2.9.1-.9.4-.5.6 1.1 10.7.5.7.4-.7zm12.1-1.9l3.1-4.2.2-3.6-.5-1.1-3.1-.7-.6.3-.2.9-.2 7.3.2 1.7 1.1-.6zm13.5 0c2.3-1.2-2.1-3.3-1.4-.2.2.7.4.7 1.4.2z"/>
</svg>
